<svg width="72" height="72" viewBox="0 0 72 72" fill="none" xmlns="http://www.w3.org/2000/svg">
<path d="M35.4571 22.3625H33.1797L29.6726 32.13H31.7268L32.369 30.2717H36.257L36.8992 32.13H38.9678L35.4571 22.3625ZM32.8996 28.7071L34.3116 24.624L35.7235 28.705L32.8996 28.7071Z" fill="#1B2D35"/>
<path d="M47.8591 26.1425C47.5726 25.5697 47.1324 25.088 46.5876 24.7514C46.0461 24.4248 45.4242 24.256 44.7919 24.264C44.2646 24.2543 43.7433 24.3768 43.2756 24.6204C42.8645 24.8315 42.5081 25.1351 42.2344 25.5074V24.3886H40.2782V34.2957C40.7582 34.2737 41.2519 34.2619 41.7592 34.2605C41.9162 34.2605 42.0753 34.2605 42.2344 34.2605V31.0262C42.5187 31.3921 42.8785 31.6924 43.2892 31.9068C43.7531 32.1467 44.2697 32.2668 44.7919 32.256C45.4264 32.2635 46.0496 32.0885 46.5876 31.752C47.1336 31.4053 47.5736 30.9147 47.8591 30.3343C48.1716 29.7238 48.3276 29.0225 48.3271 28.2305C48.3266 27.4385 48.1706 26.7425 47.8591 26.1425ZM46.0425 29.4617C45.8672 29.7899 45.6065 30.0648 45.288 30.2573C44.9826 30.4424 44.632 30.5393 44.2749 30.5374C43.9234 30.538 43.5782 30.444 43.2756 30.2652C42.9562 30.0753 42.6952 29.8014 42.521 29.4732C42.3326 29.0956 42.2345 28.6794 42.2345 28.2575C42.2345 27.8355 42.3326 27.4193 42.521 27.0418C42.6954 26.7137 42.9563 26.4398 43.2756 26.2498C43.5781 26.0707 43.9233 25.9764 44.2749 25.9769C44.6302 25.9749 44.9797 26.0668 45.288 26.2433C45.6064 26.4267 45.8676 26.6949 46.0425 27.018C46.2416 27.3892 46.3408 27.8058 46.3305 28.2269C46.3421 28.6564 46.2429 29.0816 46.0425 29.4617Z" fill="#1B2D35"/>
<path d="M57.3335 26.1425C57.0468 25.5697 56.6063 25.088 56.0613 24.7515C55.5203 24.4245 54.8985 24.2556 54.2664 24.264C53.7391 24.2541 53.2177 24.3767 52.75 24.6204C52.3387 24.8311 51.9822 25.1348 51.7089 25.5075V24.3886H49.752V35.7027L50.1235 35.8193H51.7075V31.0263C51.9916 31.3923 52.3514 31.6926 52.7623 31.9068C53.2266 32.1471 53.7437 32.2671 54.2664 32.256C54.9006 32.2638 55.5238 32.0888 56.0613 31.752C56.6076 31.4053 57.0478 30.9148 57.3335 30.3343C57.6455 29.7238 57.8015 29.0225 57.8015 28.2305C57.8015 27.4385 57.6455 26.7425 57.3335 26.1425ZM55.5163 29.4617C55.3414 29.7903 55.0806 30.0652 54.7617 30.2573C54.4566 30.4424 54.1062 30.5393 53.7494 30.5374C53.3979 30.5382 53.0526 30.4441 52.75 30.2652C52.4305 30.0754 52.1692 29.8014 51.9948 29.4732C51.8067 29.0955 51.7089 28.6794 51.7089 28.2575C51.7089 27.8356 51.8067 27.4195 51.9948 27.0418C52.1694 26.7137 52.4306 26.4398 52.75 26.2498C53.0526 26.0706 53.3978 25.9764 53.7494 25.9769C54.1044 25.975 54.4536 26.0669 54.7617 26.2433C55.0804 26.4263 55.3418 26.6946 55.5163 27.018C55.7156 27.3891 55.8149 27.8058 55.8043 28.2269C55.8162 28.6564 55.717 29.0818 55.5163 29.4617Z" fill="#1B2D35"/>
<path d="M59.2264 21.7894V32.13H61.1834V21.7894H59.2264Z" fill="#1B2D35"/>
<path d="M68.436 24.3885L66.4092 29.7965L64.4112 24.3885H62.2174L65.3199 31.9349L63.7978 35.4348L63.643 35.7948H63.9497C64.7341 35.5141 65.4843 35.1458 66.186 34.6968L66.428 34.1208L70.5183 24.3907L68.436 24.3885Z" fill="#1B2D35"/>
<path d="M30.2731 39.145V48.8995H32.2293V39.145H30.2731Z" fill="#1B2D35"/>
<path d="M38.1686 42.768V41.1574H36.4356V39.24H34.4649V41.1545H33.5426V42.768H34.4649V46.499C34.4649 48.1018 35.2896 48.9031 36.9388 48.9031H38.1686V47.25H37.26C36.9619 47.25 36.75 47.1917 36.6242 47.075C36.4984 46.9584 36.4356 46.7707 36.4356 46.512V42.768H38.1686Z" fill="#1B2D35"/>
<path d="M45.1692 41.1573V42.264C44.8924 41.8962 44.5367 41.5953 44.1281 41.3834C43.661 41.1431 43.1413 41.023 42.6161 41.0342C41.9821 41.0253 41.3584 41.1947 40.8161 41.5231C40.2699 41.8609 39.8294 42.3451 39.5445 42.9206C39.2325 43.5259 39.0765 44.22 39.0765 45.0029C39.0765 45.7949 39.2325 46.4959 39.5445 47.106C39.8303 47.6864 40.2702 48.1771 40.8161 48.5244C41.3497 48.8593 41.9681 49.0342 42.5981 49.0284C43.1298 49.0393 43.6558 48.9167 44.1281 48.672C44.542 48.4592 44.899 48.1503 45.1692 47.7713V48.9031H47.1391V41.1573H45.1692ZM44.8898 46.2513C44.7166 46.5776 44.4555 46.8487 44.136 47.034C43.8254 47.2125 43.4732 47.3056 43.115 47.304C42.7624 47.3047 42.4165 47.2078 42.1157 47.0239C41.7962 46.8307 41.5353 46.5542 41.3611 46.224C41.1627 45.8471 41.0636 45.4258 41.0731 45C41.0627 44.5789 41.1619 44.1623 41.3611 43.7911C41.5302 43.4737 41.7831 43.2087 42.0924 43.0251C42.4017 42.8416 42.7554 42.7464 43.115 42.75C43.4735 42.7489 43.8259 42.843 44.136 43.0229C44.4557 43.208 44.7172 43.4792 44.8905 43.8055C45.0768 44.1453 45.1699 44.5533 45.1699 45.0295C45.1699 45.5057 45.0765 45.9129 44.8898 46.2513Z" fill="#1B2D35"/>
<path d="M49.0536 38.5582V48.8995H51.0106V38.5582H49.0536Z" fill="#1B2D35"/>
<path d="M58.2625 41.1574L56.2364 46.5653L54.2384 41.1574H52.0438L55.147 48.703L53.4701 52.56H55.5517L60.3454 41.1574H58.2625Z" fill="#1B2D35"/>
<path fill-rule="evenodd" clip-rule="evenodd" d="M20.0577 28.8655L25.8861 28.3262L24.2567 45.5076C14.5367 42.6276 10.7128 44.2238 9.28433 45.4622C12.623 42.1394 21.8282 43.2626 21.8282 43.2626L21.5899 42.2028L20.5919 37.5365L21.0858 37.4306C21.1163 37.4243 21.1451 37.412 21.1708 37.3945C21.1965 37.377 21.2184 37.3546 21.2354 37.3286C21.2524 37.3025 21.2641 37.2734 21.2698 37.2429C21.2755 37.2123 21.2752 37.181 21.2687 37.1506C21.2629 37.1301 21.2555 37.1101 21.2464 37.0908C21.2478 37.0691 21.2463 37.0473 21.2421 37.026C21.2288 36.9649 21.1919 36.9115 21.1395 36.8774C21.087 36.8433 21.0233 36.8312 20.962 36.8438L20.4681 36.9497L19.1958 30.9802L19.6898 30.875C19.7511 30.8619 19.8048 30.825 19.8389 30.7723C19.8731 30.7197 19.885 30.6556 19.8719 30.5942C19.867 30.5735 19.8595 30.5534 19.8496 30.5345C19.8516 30.5128 19.8504 30.491 19.846 30.4697C19.8395 30.4393 19.8271 30.4106 19.8095 30.385C19.7918 30.3595 19.7693 30.3377 19.7432 30.3209C19.7171 30.3041 19.6879 30.2927 19.6574 30.2872C19.6268 30.2817 19.5955 30.2823 19.5652 30.289L18.2015 30.577L17.5247 27.3974L17.4643 27.1174L17.2079 25.9056L17.2893 25.8876C17.3198 25.8813 17.3487 25.869 17.3744 25.8514C17.4002 25.8338 17.4222 25.8114 17.4392 25.7853C17.4562 25.7592 17.4678 25.73 17.4735 25.6993C17.4792 25.6687 17.4787 25.6373 17.4722 25.6068C17.4673 25.586 17.4598 25.5659 17.4499 25.547C17.452 25.5262 17.452 25.5052 17.4499 25.4844C17.4367 25.4228 17.3997 25.369 17.3469 25.3347C17.2941 25.3004 17.2299 25.2885 17.1683 25.3015L16.7176 25.3973L16.3806 23.7362L20.1326 21.2047L9.99857 19.44L1.48169 25.213L3.91169 25.645L3.94481 25.6543C3.82169 26.2224 3.84473 26.9021 3.53513 27.6307C2.97785 27.72 2.84177 28.4623 3.16793 28.6949L2.47169 30.5554L4.18745 30.7512L4.02473 28.7928C4.09891 28.7421 4.16095 28.6756 4.20639 28.5981C4.25182 28.5206 4.27953 28.434 4.28751 28.3445C4.2955 28.255 4.28356 28.1649 4.25257 28.0806C4.22157 27.9962 4.17229 27.9198 4.10825 27.8568C4.43585 27.0648 4.32425 26.3225 4.48841 25.7306L5.93849 25.9934L6.28337 27.617L5.77145 27.7258C5.74085 27.7322 5.71182 27.7446 5.68604 27.7623C5.66026 27.7799 5.63823 27.8026 5.62123 27.8288C5.60423 27.855 5.59259 27.8844 5.58699 27.9151C5.58138 27.9459 5.58192 27.9775 5.58857 28.008C5.59362 28.0285 5.60111 28.0483 5.61089 28.067C5.60948 28.0885 5.61094 28.11 5.61521 28.1311C5.62834 28.1927 5.66536 28.2465 5.71814 28.2808C5.77092 28.3151 5.83515 28.327 5.89673 28.314L5.97593 28.296L6.97169 32.9688L5.70233 33.241C5.64123 33.2544 5.58793 33.2915 5.55408 33.3441C5.52022 33.3967 5.50855 33.4606 5.52161 33.5218C5.52536 33.5429 5.53292 33.5631 5.54393 33.5815C5.54075 33.603 5.54075 33.6248 5.54393 33.6463C5.55026 33.6768 5.56256 33.7057 5.58014 33.7314C5.59771 33.7571 5.62021 33.779 5.64632 33.796C5.67244 33.8129 5.70165 33.8245 5.73227 33.8301C5.7629 33.8357 5.79432 33.8351 5.82473 33.8285L6.13217 33.7622L6.69593 36.383L7.40873 39.7325L7.10201 39.7973C7.07155 39.8038 7.04267 39.8162 7.01702 39.8339C6.99138 39.8516 6.96947 39.8741 6.95255 39.9003C6.93563 39.9264 6.92403 39.9556 6.91842 39.9863C6.91281 40.0169 6.9133 40.0484 6.91985 40.0788C6.92425 40.0995 6.93178 40.1194 6.94217 40.1378C6.94076 40.1593 6.94222 40.1808 6.94649 40.2019C6.95274 40.2324 6.96496 40.2613 6.98246 40.287C6.99995 40.3127 7.02236 40.3347 7.04841 40.3517C7.07445 40.3688 7.1036 40.3804 7.13418 40.3861C7.16476 40.3918 7.19616 40.3913 7.22657 40.3848L7.53473 40.3186L8.62769 45.4558C8.63633 45.4896 8.64353 45.5242 8.65001 45.5594L8.65433 45.581C8.6641 45.6413 8.66915 45.7022 8.66945 45.7632C8.66911 45.9484 8.62677 46.131 8.54561 46.2974C8.54561 46.309 8.53697 46.3212 8.53337 46.3334C8.51832 46.3807 8.50605 46.4288 8.49665 46.4774C13.2904 42.1942 25.7947 47.8145 25.7947 47.8145L27.5299 26.0705L20.0577 28.8655ZM12.3717 43.0877C11.9777 43.2371 11.593 43.4099 11.2197 43.6054L10.6804 41.0724C10.6492 40.9477 10.6435 40.8179 10.6635 40.6909C10.6836 40.5639 10.729 40.4422 10.797 40.3332C10.8651 40.2241 10.9545 40.1298 11.0597 40.056C11.165 39.9822 11.2841 39.9304 11.4099 39.9036C11.5356 39.8768 11.6655 39.8756 11.7917 39.9001C11.9179 39.9245 12.0379 39.9742 12.1446 40.046C12.2512 40.1179 12.3423 40.2105 12.4123 40.3183C12.4824 40.4261 12.53 40.5469 12.5524 40.6735L13.019 42.8609C12.8044 42.9314 12.587 43.0056 12.3717 43.0877ZM15.31 38.0376L12.6208 38.6136L11.8014 34.7609C11.6733 34.1633 12.2126 33.4397 12.8944 33.2957C13.5763 33.1517 14.3625 33.5902 14.4892 34.1878L15.31 38.0376ZM15.7291 32.8932C15.9774 32.8405 16.2365 32.8885 16.4494 33.0268C16.6623 33.165 16.8116 33.3822 16.8645 33.6305L17.6954 37.53L15.8234 37.9289L14.9939 34.0294C14.9676 33.9065 14.9657 33.7796 14.9884 33.656C15.0111 33.5324 15.0579 33.4145 15.1262 33.309C15.1944 33.2035 15.2828 33.1125 15.3863 33.0412C15.4897 32.9698 15.6062 32.9195 15.7291 32.8932ZM12.1398 38.713L10.2678 39.1118L9.43193 35.213C9.39338 34.9706 9.44934 34.7226 9.58828 34.5202C9.72722 34.3178 9.93854 34.1764 10.1786 34.1253C10.4188 34.0741 10.6693 34.117 10.8787 34.2452C11.0881 34.3734 11.2403 34.5771 11.3039 34.8142L12.1398 38.713ZM16.1805 42.169C15.4679 42.2642 14.7608 42.3971 14.0623 42.5671C13.8729 42.6139 13.6842 42.6658 13.4956 42.719L13.0478 40.6195C12.9211 40.0219 13.4611 39.2976 14.1422 39.1543C14.8233 39.011 15.6103 39.4488 15.737 40.0464L16.1898 42.1675L16.1805 42.169ZM16.7104 42.1034L16.2395 39.888C16.2083 39.7633 16.2026 39.6335 16.2226 39.5065C16.2427 39.3795 16.2881 39.2578 16.3562 39.1488C16.4242 39.0397 16.5136 38.9454 16.6189 38.8716C16.7242 38.7978 16.8432 38.746 16.969 38.7192C17.0947 38.6924 17.2246 38.6912 17.3508 38.7157C17.477 38.7401 17.5971 38.7898 17.7037 38.8616C17.8103 38.9335 17.9014 39.0261 17.9714 39.1339C18.0415 39.2417 18.0892 39.3625 18.1115 39.4891L18.6357 41.9458C17.9927 41.976 17.3519 42.0278 16.7104 42.1013V42.1034ZM20.2319 38.8966L20.8943 42.0091C20.6656 41.965 20.4342 41.9359 20.2017 41.922C19.8688 41.9051 19.5352 41.9051 19.2023 41.922L18.6285 39.24C18.5829 39.0274 18.6237 38.8054 18.7419 38.6228C18.86 38.4402 19.0459 38.3121 19.2585 38.2666C19.4711 38.221 19.6931 38.2618 19.8757 38.38C20.0582 38.4981 20.1864 38.6839 20.2319 38.8966ZM18.0129 32.4079C18.118 32.3853 18.2266 32.3837 18.3324 32.4031C18.4382 32.4226 18.5391 32.4627 18.6293 32.5213C18.7196 32.5798 18.7974 32.6556 18.8582 32.7442C18.9191 32.8329 18.9619 32.9327 18.9842 33.0379L19.8424 37.0699L18.2426 37.4112L17.3807 33.3778C17.3583 33.2727 17.3569 33.1643 17.3764 33.0587C17.396 32.953 17.4362 32.8523 17.4947 32.7622C17.5532 32.6722 17.6289 32.5945 17.7174 32.5337C17.806 32.4729 17.9056 32.4302 18.0107 32.4079H18.0129ZM15.8875 27.2275C16.0382 27.195 16.1957 27.2168 16.3319 27.2892C16.4681 27.3615 16.5744 27.4797 16.6319 27.6228C16.6363 27.6318 16.64 27.6412 16.6427 27.6509C16.6527 27.6776 16.6604 27.705 16.6658 27.733L17.357 30.973L16.0703 31.248L15.3806 28.008C15.3624 27.9236 15.361 27.8365 15.3765 27.7515C15.3921 27.6666 15.4242 27.5856 15.4711 27.5131C15.518 27.4406 15.5787 27.3781 15.6498 27.3291C15.7208 27.2801 15.8009 27.2456 15.8853 27.2275H15.8875ZM14.0558 27.6185C14.1545 27.5973 14.2564 27.5959 14.3557 27.6141C14.455 27.6324 14.5497 27.6701 14.6344 27.725C14.7191 27.7799 14.7922 27.8509 14.8494 27.9341C14.9067 28.0172 14.947 28.1109 14.968 28.2096L15.6347 31.3409L14.1299 31.6613L13.4639 28.5307C13.4214 28.3316 13.4596 28.1237 13.5701 27.9527C13.6807 27.7817 13.8546 27.6615 14.0536 27.6185H14.0558ZM11.7777 27.936C12.3213 27.8194 12.9556 28.1736 13.0578 28.656L13.7167 31.752L11.5566 32.2121L10.8986 29.1161C10.7999 28.6351 11.2319 28.0548 11.7777 27.936ZM9.59177 28.5653C9.69077 28.5444 9.79291 28.5432 9.89237 28.5618C9.99183 28.5803 10.0867 28.6183 10.1714 28.6735C10.2562 28.7288 10.3293 28.8002 10.3865 28.8836C10.4437 28.9671 10.4838 29.061 10.5047 29.16L11.1715 32.2906L9.66737 32.611L8.99993 29.4797C8.97881 29.381 8.97737 29.279 8.9957 29.1798C9.01402 29.0805 9.05175 28.9858 9.10673 28.9011C9.16171 28.8165 9.23285 28.7435 9.31608 28.6863C9.39931 28.6292 9.493 28.589 9.59177 28.5682V28.5653ZM7.73057 28.9613C7.90086 28.9251 8.07854 28.9578 8.22478 29.0523C8.37102 29.1467 8.47394 29.2952 8.51105 29.4653L9.20081 32.7053L7.91489 32.9789L7.22513 29.7389C7.1909 29.5693 7.22471 29.393 7.31926 29.2481C7.41381 29.1031 7.56153 29.0012 7.73057 28.9642V28.9613ZM7.22657 35.5378C7.18611 35.3274 7.22977 35.1096 7.34818 34.9311C7.46659 34.7526 7.65029 34.6277 7.85981 34.5832C8.06933 34.5387 8.28795 34.5781 8.4687 34.6931C8.64944 34.808 8.77787 34.9893 8.82641 35.1979L9.69041 39.2299L8.08841 39.5712L7.22657 35.5378ZM8.47361 41.4C8.45125 41.2949 8.44981 41.1864 8.46936 41.0808C8.48892 40.9751 8.5291 40.8744 8.5876 40.7842C8.6461 40.6941 8.72178 40.6164 8.81032 40.5555C8.89885 40.4946 8.99852 40.4518 9.10361 40.4294C9.2087 40.4071 9.31717 40.4056 9.42283 40.4252C9.52848 40.4448 9.62924 40.4849 9.71937 40.5434C9.80949 40.6019 9.88721 40.6776 9.94809 40.7661C10.009 40.8547 10.0518 40.9543 10.0742 41.0594L10.6818 43.9142C10.4749 44.0417 10.2747 44.1799 10.0821 44.3282C9.83378 44.5183 9.60141 44.7282 9.38729 44.9561C9.34337 45.0022 9.30305 45.0526 9.26129 45.1001L8.47361 41.4Z" fill="#149AA3"/>
</svg>
